:SAMPLES-PER-SECOND 30
:FULLY-SPECIFIED
:DEGREES
147
root  16.39759935 36.81688985 -5.942288722 -14.17679977 -55.90250015 11.04349995
lfemur  -18.32939911 -7.916269779 -3.900629759
ltibia  -1.491570742e-006 -8.364404493e-007 49.35010147
lfoot  5.521815751e-007 -16.83510017 -4.449229717
ltoes  -4.250644065 -19.5611806 -102.515957
rfemur  -10.67800045 4.053329945 -3.334579706
rtibia  -8.727266732e-007 2.533748784e-007 65.46440125
rfoot  -2.316020982e-006 -23.38019943 -10.0546999
rtoes  5.373923086 19.29304026 -105.8922705
lowerback  8.807970047 4.200749874 -1.138450146
upperback  3.951889992 5.376969814 -1.972579956
thorax  -0.7383329868 2.658430099 -1.891559958
rclavicle  0 -9.442270133e-015 7.951389973e-016
rhumerus  7.103980064 17.90200043 -79.39379883
rradius  -7.782816926e-012 0.001642658608 138.4669952
rwrist  0.002739921212 0.003270594636 -16.16489983
rthumb  -92.93752616 -24.25625642 -97.11982154
rhand  -7.920061211e-032 -33.2840004 9.303460121
rfingers  -90 -7.125020027 -90
lclavicle  0 -9.442270133e-015 7.951389973e-016
lhumerus  9.802499771 -4.014959812 73.46130371
lradius  1.032090038e-011 0.005718162749 137.1369934
lwrist  1.816137865e-011 1.409039812e-011 7.599199772
lthumb  89.89689403 5.08795885 91.16245106
lhand  -1.496451383e-031 -27.76390076 20.11240005
lfingers  90 7.125020027 -90
lowerneck  2.69630003 7.997310162 -8.126199722
upperneck  15.83039951 10.06880093 5.123060703
head  3.626019955 4.674469948 3.056210041
148
root  16.38524514 37.11533434 -6.060800027 -13.54189968 -56.41540146 10.74909973
lfemur  -17.92800331 -8.617440224 -3.613147974
ltibia  -1.491570742e-006 -8.364404493e-007 47.88900375
lfoot  5.521815751e-007 -15.7575016 -3.166330576
ltoes  -4.250644065 -19.5611806 -102.515957
rfemur  -10.40349865 4.67635107 -2.826622248
rtibia  -8.727266732e-007 2.533748784e-007 63.57400131
rfoot  -2.316020982e-006 -22.9321003 -9.679480553
rtoes  5.373923086 19.29304026 -105.8922705
lowerback  8.585129738 4.293230057 -0.8790971041
upperback  3.836810112 5.52959013 -1.894330025
thorax  -0.7152400017 2.738850117 -1.95510006
rclavicle  0 -9.442270133e-015 7.951389973e-016
rhumerus  6.559839725 18.1413002 -79.74520111
rradius  -7.782816926e-012 0.001642658608 138.6820068
rwrist  0.002739921212 0.003270594636 -16.2840004
rthumb  -92.93752616 -24.25625642 -97.11982154
rhand  -7.920061211e-032 -33.2840004 9.303460121
rfingers  -90 -7.125020027 -90
lclavicle  0 -9.442270133e-015 7.951389973e-016
lhumerus  10.15400028 -4.089479923 72.86499786
lradius  1.032090038e-011 0.005718162749 137.5549927
lwrist  1.816137865e-011 1.409039812e-011 6.995490074
lthumb  89.89689403 5.08795885 91.16245106
lhand  -1.496451383e-031 -27.76390076 20.11240005
lfingers  90 7.125020027 -90
lowerneck  2.304650068 7.980490208 -8.008179665
upperneck  15.73019981 10.06219864 5.341020107
head  3.650330067 4.696909904 3.117269993
149
root  16.37100009 37.43155472 -6.190510998 -12.56770039 -56.98320007 10.20769978
lfemur  -17.65470123 -9.418809891 -3.16353941
ltibia  -1.491570742e-006 -8.364404493e-007 46.38069916
lfoot  5.521815751e-007 -14.51469898 -1.808669806
ltoes  -4.250644065 -19.5611806 -102.515957
rfemur  -10.19710255 5.443190098 -2.125601053
rtibia  -8.727266732e-007 2.533748784e-007 61.52510071
rfoot  -2.316020982e-006 -22.35139847 -9.461500168
rtoes  5.373923086 19.29304026 -105.8922705
lowerback  8.349599838 4.4134202 -0.4021950662
upperback  3.671740055 5.73567009 -1.809290051
thorax  -0.7135019898 2.848589897 -2.136320114
rclavicle  0 -9.442270133e-015 7.951389973e-016
rhumerus  6.104959488 18.21800041 -79.90899658
rradius  -7.782816926e-012 0.001642658608 138.9450073
rwrist  0.002739921212 0.003270594636 -16.13658714
rthumb  -92.93752616 -24.25625642 -97.11982154
rhand  -7.920061211e-032 -33.2840004 9.303460121
rfingers  -90 -7.125020027 -90
lclavicle  0 -9.442270133e-015 7.951389973e-016
lhumerus  10.47469997 -4.278729916 72.39199829
lradius  1.032090125e-011 0.005718162749 138.1080017
lwrist  1.816137865e-011 1.409039812e-011 6.429890156
lthumb  89.89689403 5.08795885 91.16245106
lhand  -1.496451383e-031 -27.76390076 20.11240005
lfingers  90 7.125020027 -90
lowerneck  1.72349 7.896830082 -7.957620144
upperneck  15.78259945 9.98045063 5.563640594
head  3.753149986 4.677440166 3.204050064
150
root  16.353867 37.76066697 -6.331777948 -11.31550026 -57.61610031 9.472740173
lfemur  -17.46439171 -10.28759956 -2.596721411
ltibia  -1.491570742e-006 -8.364404493e-007 44.84828949
lfoot  5.521815751e-007 -13.23549747 -0.1987113506
ltoes  -4.250644065 -19.5611806 -102.515957
rfemur  -10.06029797 6.407710552 -1.317901492
rtibia  -8.727266732e-007 2.533748784e-007 59.37939072
rfoot  -2.316020982e-006 -21.77989578 -9.035188675
rtoes  5.373923086 19.29304026 -105.8922705
lowerback  8.15501976 4.513999939 0.115341939
upperback  3.323319912 5.917280197 -1.730599999
thorax  -0.916876018 2.944509983 -2.35649991
rclavicle  0 -9.442270133e-015 7.951389973e-016
rhumerus  5.502689838 18.35950089 -80.10520172
rradius  -7.782816926e-012 0.001642658608 139.2160034
rwrist  0.002739921212 0.003270594636 -16.01460075
rthumb  -92.93752616 -24.25625642 -97.11982154
rhand  -7.920061211e-032 -33.2840004 9.303460121
rfingers  -90 -7.125020027 -90
lclavicle  0 -9.442270133e-015 7.951389973e-016
lhumerus  10.54999924 -4.303410053 71.86779785
lradius  1.032090212e-011 0.005718162749 138.6829987
lwrist  1.816137865e-011 1.409039812e-011 6.113460064
lthumb  89.89689403 5.08795885 91.16245106
lhand  -1.496451383e-031 -27.76390076 20.11240005
lfingers  90 7.125020027 -90
lowerneck  1.52294004 7.844279766 -7.737440109
upperneck  15.74969959 9.916140556 5.640039921
head  3.785099983 4.665609837 3.200710058
151
root  16.33922397 38.07133352 -6.472533519 -10.60830021 -58.22050095 9.348640442
lfemur  -17.18939781 -11.13549995 -2.443462133
ltibia  -1.491570742e-006 -8.364404493e-007 43.33629227
lfoot  5.521815751e-007 -12.06759453 1.510230303
ltoes  -4.250644065 -19.5611806 -102.515957
rfemur  -9.877656937 7.475110531 -0.934074223
rtibia  -8.727266732e-007 2.533748784e-007 57.23089218
rfoot  -2.316020982e-006 -21.29139709 -8.670899391
rtoes  5.373923086 19.29304026 -105.8922705
lowerback  7.966790199 4.574110031 0.2454350293
upperback  2.965630054 6.012249947 -1.740329981
thorax  -1.164759994 2.991739988 -2.448339939
rclavicle  0 -9.442270133e-015 7.951389973e-016
rhumerus  4.905389786 18.67760086 -80.29940033
rradius  -7.782816926e-012 0.001642658608 139.4850006
rwrist  0.002739921212 0.003270594636 -16.00209999
rthumb  -92.93752616 -24.25625642 -97.11982154
rhand  -7.920061211e-032 -33.2840004 9.303460121
rfingers  -90 -7.125020027 -90
lclavicle  0 -9.442270133e-015 7.951389973e-016
lhumerus  10.4610014 -4.064430237 71.27410126
lradius  1.032090038e-011 0.005718162749 139.2920074
lwrist  1.816137865e-011 1.409039812e-011 6.123720169
lthumb  89.89689403 5.08795885 91.16245106
lhand  -1.496451383e-031 -27.76390076 20.11240005
lfingers  90 7.125020027 -90
lowerneck  1.560989976 7.860990047 -7.446420193
upperneck  15.58069897 9.940581322 5.564980507
head  3.744529963 4.693369865 3.125960112
152
root  16.32668953 38.36155689 -6.615911319 -10.21339989 -58.84080124 9.590749741
lfemur  -16.90480042 -11.74820042 -2.528687954
ltibia  -1.491570742e-006 -8.364404493e-007 41.89190292
lfoot  5.521815751e-007 -11.06200314 3.110650301
ltoes  -4.250644065 -19.5611806 -102.515957
rfemur  -9.73044014 8.685210228 -0.7850871682
rtibia  -8.727266732e-007 2.533748784e-007 55.14330292
rfoot  -2.316020982e-006 -21.02920151 -8.024279594
rtoes  5.373923086 19.29304026 -105.8922705
lowerback  7.703569889 4.606309891 0.1640921682
upperback  2.690850019 6.053480148 -1.768030047
thorax  -1.307420015 3.011369944 -2.426789999
rclavicle  0 -9.442270133e-015 7.951389973e-016
rhumerus  4.536310196 19.0739994 -80.51039886
rradius  -7.782816926e-012 0.001642658608 139.6670074
rwrist  0.002739921212 0.003270594636 -15.45820045
rthumb  -92.93752616 -24.25625642 -97.11982154
rhand  -7.920061211e-032 -33.2840004 9.303460121
rfingers  -90 -7.125020027 -90
lclavicle  0 -9.442270133e-015 7.951389973e-016
lhumerus  10.39210033 -3.949280024 70.62030029
lradius  1.032090125e-011 0.005718162749 140.1580048
lwrist  1.816137865e-011 1.409039812e-011 6.295700073
lthumb  89.89689403 5.08795885 91.16245106
lhand  -1.496451383e-031 -27.76390076 20.11240005
lfingers  90 7.125020027 -90
lowerneck  1.319599986 7.941450119 -7.176970005
upperneck  15.57619858 10.07940006 5.430699825
head  3.795150042 4.772659779 3.056159973
153
root  16.32140002 38.635332 -6.770911179 -9.098549843 -59.46080017 9.099450111
lfemur  -16.81489944 -12.08129978 -2.180138111
ltibia  -1.491570742e-006 -8.364404493e-007 40.58100128
lfoot  5.521815751e-007 -10.15790176 4.503700256
ltoes  -4.250644065 -19.5611806 -102.515957
rfemur  -9.741351128 9.933479309 -0.2294917405
rtibia  -8.727266732e-007 2.533748784e-007 53.15070343
rfoot  -2.316020982e-006 -20.95220184 -7.198899746
rtoes  5.373923086 19.29304026 -105.8922705
lowerback  7.350689888 4.500919819 0.3546648622
upperback  2.502810001 5.935599804 -1.675109982
thorax  -1.30250001 2.953949928 -2.405550003
rclavicle  0 -9.442270133e-015 7.951389973e-016
rhumerus  4.4717803 19.74740028 -80.75679779
rradius  -7.782816926e-012 0.001642658608 139.8820038
rwrist  0.002739921212 0.003270594636 -14.95049953
rthumb  -92.93752616 -24.25625642 -97.11982154
rhand  -7.920061211e-032 -33.2840004 9.303460121
rfingers  -90 -7.125020027 -90
lclavicle  0 -9.442270133e-015 7.951389973e-016
lhumerus  10.50759983 -3.644360065 69.81030273
lradius  1.032090212e-011 0.005718162749 141.1380005
lwrist  1.816137865e-011 1.409039812e-011 6.510449886
lthumb  89.89689403 5.08795885 91.16245106
lhand  -1.496451383e-031 -27.76390076 20.11240005
lfingers  90 7.125020027 -90
lowerneck  0.6079990268 8.086790085 -6.895679951
upperneck  15.69299984 10.35079956 5.220809937
head  3.957590103 4.916110039 2.990210056
